<?xml version="1.0" encoding="utf-8" standalone="no"?>
<!DOCTYPE svg PUBLIC "-//W3C//DTD SVG 1.1//EN"
  "http://www.w3.org/Graphics/SVG/1.1/DTD/svg11.dtd">
<svg xmlns:xlink="http://www.w3.org/1999/xlink" width="543.768862pt" height="505.056053pt" viewBox="0 0 543.768862 505.056053" xmlns="http://www.w3.org/2000/svg" version="1.1">
 <metadata>
  <rdf:RDF xmlns:dc="http://purl.org/dc/elements/1.1/" xmlns:cc="http://creativecommons.org/ns#" xmlns:rdf="http://www.w3.org/1999/02/22-rdf-syntax-ns#">
   <cc:Work>
    <dc:type rdf:resource="http://purl.org/dc/dcmitype/StillImage"/>
    <dc:date>2025-05-30T04:09:40.657417</dc:date>
    <dc:format>image/svg+xml</dc:format>
    <dc:creator>
     <cc:Agent>
      <dc:title>Matplotlib v3.10.3, https://matplotlib.org/</dc:title>
     </cc:Agent>
    </dc:creator>
   </cc:Work>
  </rdf:RDF>
 </metadata>
 <defs>
  <style type="text/css">*{stroke-linejoin: round; stroke-linecap: butt}</style>
 </defs>
 <g id="figure_1">
  <g id="patch_1">
   <path d="M 0 505.056053 
L 543.768862 505.056053 
L 543.768862 0 
L 0 0 
z
" style="fill: #ffffff"/>
  </g>
  <g id="axes_1">
   <g id="patch_2">
    <path d="M 452.864862 268.312 
C 452.864862 239.190744 447.12861 210.352655 435.984387 183.448122 
C 424.840165 156.543589 408.5047 132.095838 387.912862 111.504 
C 367.321024 90.912162 342.873273 74.576697 315.96874 63.432475 
C 289.064207 52.288253 260.226119 46.552 231.104862 46.552 
C 201.983606 46.552 173.145517 52.288253 146.240984 63.432475 
C 119.336452 74.576697 94.8887 90.912162 74.296862 111.504 
C 53.705025 132.095838 37.369559 156.543589 26.225337 183.448122 
C 15.081115 210.352655 9.344862 239.190744 9.344862 268.312 
C 9.344862 297.433256 15.081115 326.271345 26.225337 353.175878 
C 37.369559 380.080411 53.705025 404.528162 74.296862 425.12 
C 94.8887 445.711838 119.336452 462.047303 146.240984 473.191525 
C 173.145517 484.335747 201.983606 490.072 231.104862 490.072 
C 260.226119 490.072 289.064207 484.335747 315.96874 473.191525 
C 342.873273 462.047303 367.321024 445.711838 387.912862 425.12 
C 408.5047 404.528162 424.840165 380.080411 435.984387 353.175878 
C 447.12861 326.271345 452.864862 297.433256 452.864862 268.312 
M 231.104862 268.312 
C 231.104862 268.312 231.104862 268.312 231.104862 268.312 
C 231.104862 268.312 231.104862 268.312 231.104862 268.312 
C 231.104862 268.312 231.104862 268.312 231.104862 268.312 
C 231.104862 268.312 231.104862 268.312 231.104862 268.312 
C 231.104862 268.312 231.104862 268.312 231.104862 268.312 
C 231.104862 268.312 231.104862 268.312 231.104862 268.312 
C 231.104862 268.312 231.104862 268.312 231.104862 268.312 
C 231.104862 268.312 231.104862 268.312 231.104862 268.312 
C 231.104862 268.312 231.104862 268.312 231.104862 268.312 
C 231.104862 268.312 231.104862 268.312 231.104862 268.312 
C 231.104862 268.312 231.104862 268.312 231.104862 268.312 
C 231.104862 268.312 231.104862 268.312 231.104862 268.312 
C 231.104862 268.312 231.104862 268.312 231.104862 268.312 
C 231.104862 268.312 231.104862 268.312 231.104862 268.312 
C 231.104862 268.312 231.104862 268.312 231.104862 268.312 
C 231.104862 268.312 231.104862 268.312 231.104862 268.312 
z
" style="fill: #ffffff"/>
   </g>
   <g id="patch_3">
    <path d="M 443.994462 268.312 
L 294.150262 74.27821 
L 69.638014 150.999468 
L 73.226167 383.017587 
L 288.668054 445.473286 
z
" clip-path="url(#p74580a2c15)" style="fill: #87ceeb; opacity: 0.4; stroke: #87ceeb; stroke-linejoin: miter"/>
   </g>
   <g id="matplotlib.axis_1">
    <g id="xtick_1">
     <g id="line2d_1">
      <path d="M 231.104862 268.312 
L 452.864862 268.312 
" clip-path="url(#p74580a2c15)" style="fill: none; stroke: #b0b0b0; stroke-width: 0.8; stroke-linecap: square"/>
     </g>
     <g id="text_1">
      <!-- Confidenzialità -->
      <g transform="translate(425.980097 271.347313) scale(0.11 -0.11)">
       <defs>
        <path id="DejaVuSans-43" d="M 4122 4306 
L 4122 3641 
Q 3803 3938 3442 4084 
Q 3081 4231 2675 4231 
Q 1875 4231 1450 3742 
Q 1025 3253 1025 2328 
Q 1025 1406 1450 917 
Q 1875 428 2675 428 
Q 3081 428 3442 575 
Q 3803 722 4122 1019 
L 4122 359 
Q 3791 134 3420 21 
Q 3050 -91 2638 -91 
Q 1578 -91 968 557 
Q 359 1206 359 2328 
Q 359 3453 968 4101 
Q 1578 4750 2638 4750 
Q 3056 4750 3426 4639 
Q 3797 4528 4122 4306 
z
" transform="scale(0.015625)"/>
        <path id="DejaVuSans-6f" d="M 1959 3097 
Q 1497 3097 1228 2736 
Q 959 2375 959 1747 
Q 959 1119 1226 758 
Q 1494 397 1959 397 
Q 2419 397 2687 759 
Q 2956 1122 2956 1747 
Q 2956 2369 2687 2733 
Q 2419 3097 1959 3097 
z
M 1959 3584 
Q 2709 3584 3137 3096 
Q 3566 2609 3566 1747 
Q 3566 888 3137 398 
Q 2709 -91 1959 -91 
Q 1206 -91 779 398 
Q 353 888 353 1747 
Q 353 2609 779 3096 
Q 1206 3584 1959 3584 
z
" transform="scale(0.015625)"/>
        <path id="DejaVuSans-6e" d="M 3513 2113 
L 3513 0 
L 2938 0 
L 2938 2094 
Q 2938 2591 2744 2837 
Q 2550 3084 2163 3084 
Q 1697 3084 1428 2787 
Q 1159 2491 1159 1978 
L 1159 0 
L 581 0 
L 581 3500 
L 1159 3500 
L 1159 2956 
Q 1366 3272 1645 3428 
Q 1925 3584 2291 3584 
Q 2894 3584 3203 3211 
Q 3513 2838 3513 2113 
z
" transform="scale(0.015625)"/>
        <path id="DejaVuSans-66" d="M 2375 4863 
L 2375 4384 
L 1825 4384 
Q 1516 4384 1395 4259 
Q 1275 4134 1275 3809 
L 1275 3500 
L 2222 3500 
L 2222 3053 
L 1275 3053 
L 1275 0 
L 697 0 
L 697 3053 
L 147 3053 
L 147 3500 
L 697 3500 
L 697 3744 
Q 697 4328 969 4595 
Q 1241 4863 1831 4863 
L 2375 4863 
z
" transform="scale(0.015625)"/>
        <path id="DejaVuSans-69" d="M 603 3500 
L 1178 3500 
L 1178 0 
L 603 0 
L 603 3500 
z
M 603 4863 
L 1178 4863 
L 1178 4134 
L 603 4134 
L 603 4863 
z
" transform="scale(0.015625)"/>
        <path id="DejaVuSans-64" d="M 2906 2969 
L 2906 4863 
L 3481 4863 
L 3481 0 
L 2906 0 
L 2906 525 
Q 2725 213 2448 61 
Q 2172 -91 1784 -91 
Q 1150 -91 751 415 
Q 353 922 353 1747 
Q 353 2572 751 3078 
Q 1150 3584 1784 3584 
Q 2172 3584 2448 3432 
Q 2725 3281 2906 2969 
z
M 947 1747 
Q 947 1113 1208 752 
Q 1469 391 1925 391 
Q 2381 391 2643 752 
Q 2906 1113 2906 1747 
Q 2906 2381 2643 2742 
Q 2381 3103 1925 3103 
Q 1469 3103 1208 2742 
Q 947 2381 947 1747 
z
" transform="scale(0.015625)"/>
        <path id="DejaVuSans-65" d="M 3597 1894 
L 3597 1613 
L 953 1613 
Q 991 1019 1311 708 
Q 1631 397 2203 397 
Q 2534 397 2845 478 
Q 3156 559 3463 722 
L 3463 178 
Q 3153 47 2828 -22 
Q 2503 -91 2169 -91 
Q 1331 -91 842 396 
Q 353 884 353 1716 
Q 353 2575 817 3079 
Q 1281 3584 2069 3584 
Q 2775 3584 3186 3129 
Q 3597 2675 3597 1894 
z
M 3022 2063 
Q 3016 2534 2758 2815 
Q 2500 3097 2075 3097 
Q 1594 3097 1305 2825 
Q 1016 2553 972 2059 
L 3022 2063 
z
" transform="scale(0.015625)"/>
        <path id="DejaVuSans-7a" d="M 353 3500 
L 3084 3500 
L 3084 2975 
L 922 459 
L 3084 459 
L 3084 0 
L 275 0 
L 275 525 
L 2438 3041 
L 353 3041 
L 353 3500 
z
" transform="scale(0.015625)"/>
        <path id="DejaVuSans-61" d="M 2194 1759 
Q 1497 1759 1228 1600 
Q 959 1441 959 1056 
Q 959 750 1161 570 
Q 1363 391 1709 391 
Q 2188 391 2477 730 
Q 2766 1069 2766 1631 
L 2766 1759 
L 2194 1759 
z
M 3341 1997 
L 3341 0 
L 2766 0 
L 2766 531 
Q 2569 213 2275 61 
Q 1981 -91 1556 -91 
Q 1019 -91 701 211 
Q 384 513 384 1019 
Q 384 1609 779 1909 
Q 1175 2209 1959 2209 
L 2766 2209 
L 2766 2266 
Q 2766 2663 2505 2880 
Q 2244 3097 1772 3097 
Q 1472 3097 1187 3025 
Q 903 2953 641 2809 
L 641 3341 
Q 956 3463 1253 3523 
Q 1550 3584 1831 3584 
Q 2591 3584 2966 3190 
Q 3341 2797 3341 1997 
z
" transform="scale(0.015625)"/>
        <path id="DejaVuSans-6c" d="M 603 4863 
L 1178 4863 
L 1178 0 
L 603 0 
L 603 4863 
z
" transform="scale(0.015625)"/>
        <path id="DejaVuSans-74" d="M 1172 4494 
L 1172 3500 
L 2356 3500 
L 2356 3053 
L 1172 3053 
L 1172 1153 
Q 1172 725 1289 603 
Q 1406 481 1766 481 
L 2356 481 
L 2356 0 
L 1766 0 
Q 1100 0 847 248 
Q 594 497 594 1153 
L 594 3053 
L 172 3053 
L 172 3500 
L 594 3500 
L 594 4494 
L 1172 4494 
z
" transform="scale(0.015625)"/>
        <path id="DejaVuSans-e0" d="M 2194 1759 
Q 1497 1759 1228 1600 
Q 959 1441 959 1056 
Q 959 750 1161 570 
Q 1363 391 1709 391 
Q 2188 391 2477 730 
Q 2766 1069 2766 1631 
L 2766 1759 
L 2194 1759 
z
M 3341 1997 
L 3341 0 
L 2766 0 
L 2766 531 
Q 2569 213 2275 61 
Q 1981 -91 1556 -91 
Q 1019 -91 701 211 
Q 384 513 384 1019 
Q 384 1609 779 1909 
Q 1175 2209 1959 2209 
L 2766 2209 
L 2766 2266 
Q 2766 2663 2505 2880 
Q 2244 3097 1772 3097 
Q 1472 3097 1187 3025 
Q 903 2953 641 2809 
L 641 3341 
Q 956 3463 1253 3523 
Q 1550 3584 1831 3584 
Q 2591 3584 2966 3190 
Q 3341 2797 3341 1997 
z
M 1403 5119 
L 2284 3950 
L 1806 3950 
L 788 5119 
L 1403 5119 
z
" transform="scale(0.015625)"/>
       </defs>
       <use xlink:href="#DejaVuSans-43"/>
       <use xlink:href="#DejaVuSans-6f" transform="translate(69.824219 0)"/>
       <use xlink:href="#DejaVuSans-6e" transform="translate(131.005859 0)"/>
       <use xlink:href="#DejaVuSans-66" transform="translate(194.384766 0)"/>
       <use xlink:href="#DejaVuSans-69" transform="translate(229.589844 0)"/>
       <use xlink:href="#DejaVuSans-64" transform="translate(257.373047 0)"/>
       <use xlink:href="#DejaVuSans-65" transform="translate(320.849609 0)"/>
       <use xlink:href="#DejaVuSans-6e" transform="translate(382.373047 0)"/>
       <use xlink:href="#DejaVuSans-7a" transform="translate(445.751953 0)"/>
       <use xlink:href="#DejaVuSans-69" transform="translate(498.242188 0)"/>
       <use xlink:href="#DejaVuSans-61" transform="translate(526.025391 0)"/>
       <use xlink:href="#DejaVuSans-6c" transform="translate(587.304688 0)"/>
       <use xlink:href="#DejaVuSans-69" transform="translate(615.087891 0)"/>
       <use xlink:href="#DejaVuSans-74" transform="translate(642.871094 0)"/>
       <use xlink:href="#DejaVuSans-e0" transform="translate(682.080078 0)"/>
      </g>
     </g>
    </g>
    <g id="xtick_2">
     <g id="line2d_2">
      <path d="M 231.104862 268.312 
L 299.632471 57.405707 
" clip-path="url(#p74580a2c15)" style="fill: none; stroke: #b0b0b0; stroke-width: 0.8; stroke-linecap: square"/>
     </g>
     <g id="text_2">
      <!-- Privacy -->
      <g transform="translate(284.044412 47.126228) scale(0.11 -0.11)">
       <defs>
        <path id="DejaVuSans-50" d="M 1259 4147 
L 1259 2394 
L 2053 2394 
Q 2494 2394 2734 2622 
Q 2975 2850 2975 3272 
Q 2975 3691 2734 3919 
Q 2494 4147 2053 4147 
L 1259 4147 
z
M 628 4666 
L 2053 4666 
Q 2838 4666 3239 4311 
Q 3641 3956 3641 3272 
Q 3641 2581 3239 2228 
Q 2838 1875 2053 1875 
L 1259 1875 
L 1259 0 
L 628 0 
L 628 4666 
z
" transform="scale(0.015625)"/>
        <path id="DejaVuSans-72" d="M 2631 2963 
Q 2534 3019 2420 3045 
Q 2306 3072 2169 3072 
Q 1681 3072 1420 2755 
Q 1159 2438 1159 1844 
L 1159 0 
L 581 0 
L 581 3500 
L 1159 3500 
L 1159 2956 
Q 1341 3275 1631 3429 
Q 1922 3584 2338 3584 
Q 2397 3584 2469 3576 
Q 2541 3569 2628 3553 
L 2631 2963 
z
" transform="scale(0.015625)"/>
        <path id="DejaVuSans-76" d="M 191 3500 
L 800 3500 
L 1894 563 
L 2988 3500 
L 3597 3500 
L 2284 0 
L 1503 0 
L 191 3500 
z
" transform="scale(0.015625)"/>
        <path id="DejaVuSans-63" d="M 3122 3366 
L 3122 2828 
Q 2878 2963 2633 3030 
Q 2388 3097 2138 3097 
Q 1578 3097 1268 2742 
Q 959 2388 959 1747 
Q 959 1106 1268 751 
Q 1578 397 2138 397 
Q 2388 397 2633 464 
Q 2878 531 3122 666 
L 3122 134 
Q 2881 22 2623 -34 
Q 2366 -91 2075 -91 
Q 1284 -91 818 406 
Q 353 903 353 1747 
Q 353 2603 823 3093 
Q 1294 3584 2113 3584 
Q 2378 3584 2631 3529 
Q 2884 3475 3122 3366 
z
" transform="scale(0.015625)"/>
        <path id="DejaVuSans-79" d="M 2059 -325 
Q 1816 -950 1584 -1140 
Q 1353 -1331 966 -1331 
L 506 -1331 
L 506 -850 
L 844 -850 
Q 1081 -850 1212 -737 
Q 1344 -625 1503 -206 
L 1606 56 
L 191 3500 
L 800 3500 
L 1894 763 
L 2988 3500 
L 3597 3500 
L 2059 -325 
z
" transform="scale(0.015625)"/>
       </defs>
       <use xlink:href="#DejaVuSans-50"/>
       <use xlink:href="#DejaVuSans-72" transform="translate(58.552734 0)"/>
       <use xlink:href="#DejaVuSans-69" transform="translate(99.666016 0)"/>
       <use xlink:href="#DejaVuSans-76" transform="translate(127.449219 0)"/>
       <use xlink:href="#DejaVuSans-61" transform="translate(186.628906 0)"/>
       <use xlink:href="#DejaVuSans-63" transform="translate(247.908203 0)"/>
       <use xlink:href="#DejaVuSans-79" transform="translate(302.888672 0)"/>
      </g>
     </g>
    </g>
    <g id="xtick_3">
     <g id="line2d_3">
      <path d="M 231.104862 268.312 
L 51.697254 137.964742 
" clip-path="url(#p74580a2c15)" style="fill: none; stroke: #b0b0b0; stroke-width: 0.8; stroke-linecap: square"/>
     </g>
     <g id="text_3">
      <!-- Integrità -->
      <g transform="translate(16.915234 132.991061) scale(0.11 -0.11)">
       <defs>
        <path id="DejaVuSans-49" d="M 628 4666 
L 1259 4666 
L 1259 0 
L 628 0 
L 628 4666 
z
" transform="scale(0.015625)"/>
        <path id="DejaVuSans-67" d="M 2906 1791 
Q 2906 2416 2648 2759 
Q 2391 3103 1925 3103 
Q 1463 3103 1205 2759 
Q 947 2416 947 1791 
Q 947 1169 1205 825 
Q 1463 481 1925 481 
Q 2391 481 2648 825 
Q 2906 1169 2906 1791 
z
M 3481 434 
Q 3481 -459 3084 -895 
Q 2688 -1331 1869 -1331 
Q 1566 -1331 1297 -1286 
Q 1028 -1241 775 -1147 
L 775 -588 
Q 1028 -725 1275 -790 
Q 1522 -856 1778 -856 
Q 2344 -856 2625 -561 
Q 2906 -266 2906 331 
L 2906 616 
Q 2728 306 2450 153 
Q 2172 0 1784 0 
Q 1141 0 747 490 
Q 353 981 353 1791 
Q 353 2603 747 3093 
Q 1141 3584 1784 3584 
Q 2172 3584 2450 3431 
Q 2728 3278 2906 2969 
L 2906 3500 
L 3481 3500 
L 3481 434 
z
" transform="scale(0.015625)"/>
       </defs>
       <use xlink:href="#DejaVuSans-49"/>
       <use xlink:href="#DejaVuSans-6e" transform="translate(29.492188 0)"/>
       <use xlink:href="#DejaVuSans-74" transform="translate(92.871094 0)"/>
       <use xlink:href="#DejaVuSans-65" transform="translate(132.080078 0)"/>
       <use xlink:href="#DejaVuSans-67" transform="translate(193.603516 0)"/>
       <use xlink:href="#DejaVuSans-72" transform="translate(257.080078 0)"/>
       <use xlink:href="#DejaVuSans-69" transform="translate(298.193359 0)"/>
       <use xlink:href="#DejaVuSans-74" transform="translate(325.976562 0)"/>
       <use xlink:href="#DejaVuSans-e0" transform="translate(365.185547 0)"/>
      </g>
     </g>
    </g>
    <g id="xtick_4">
     <g id="line2d_4">
      <path d="M 231.104862 268.312 
L 51.697254 398.659258 
" clip-path="url(#p74580a2c15)" style="fill: none; stroke: #b0b0b0; stroke-width: 0.8; stroke-linecap: square"/>
     </g>
     <g id="text_4">
      <!-- Trasparenza -->
      <g transform="translate(7.2 409.923564) scale(0.11 -0.11)">
       <defs>
        <path id="DejaVuSans-54" d="M -19 4666 
L 3928 4666 
L 3928 4134 
L 2272 4134 
L 2272 0 
L 1638 0 
L 1638 4134 
L -19 4134 
L -19 4666 
z
" transform="scale(0.015625)"/>
        <path id="DejaVuSans-73" d="M 2834 3397 
L 2834 2853 
Q 2591 2978 2328 3040 
Q 2066 3103 1784 3103 
Q 1356 3103 1142 2972 
Q 928 2841 928 2578 
Q 928 2378 1081 2264 
Q 1234 2150 1697 2047 
L 1894 2003 
Q 2506 1872 2764 1633 
Q 3022 1394 3022 966 
Q 3022 478 2636 193 
Q 2250 -91 1575 -91 
Q 1294 -91 989 -36 
Q 684 19 347 128 
L 347 722 
Q 666 556 975 473 
Q 1284 391 1588 391 
Q 1994 391 2212 530 
Q 2431 669 2431 922 
Q 2431 1156 2273 1281 
Q 2116 1406 1581 1522 
L 1381 1569 
Q 847 1681 609 1914 
Q 372 2147 372 2553 
Q 372 3047 722 3315 
Q 1072 3584 1716 3584 
Q 2034 3584 2315 3537 
Q 2597 3491 2834 3397 
z
" transform="scale(0.015625)"/>
        <path id="DejaVuSans-70" d="M 1159 525 
L 1159 -1331 
L 581 -1331 
L 581 3500 
L 1159 3500 
L 1159 2969 
Q 1341 3281 1617 3432 
Q 1894 3584 2278 3584 
Q 2916 3584 3314 3078 
Q 3713 2572 3713 1747 
Q 3713 922 3314 415 
Q 2916 -91 2278 -91 
Q 1894 -91 1617 61 
Q 1341 213 1159 525 
z
M 3116 1747 
Q 3116 2381 2855 2742 
Q 2594 3103 2138 3103 
Q 1681 3103 1420 2742 
Q 1159 2381 1159 1747 
Q 1159 1113 1420 752 
Q 1681 391 2138 391 
Q 2594 391 2855 752 
Q 3116 1113 3116 1747 
z
" transform="scale(0.015625)"/>
       </defs>
       <use xlink:href="#DejaVuSans-54"/>
       <use xlink:href="#DejaVuSans-72" transform="translate(46.333984 0)"/>
       <use xlink:href="#DejaVuSans-61" transform="translate(87.447266 0)"/>
       <use xlink:href="#DejaVuSans-73" transform="translate(148.726562 0)"/>
       <use xlink:href="#DejaVuSans-70" transform="translate(200.826172 0)"/>
       <use xlink:href="#DejaVuSans-61" transform="translate(264.302734 0)"/>
       <use xlink:href="#DejaVuSans-72" transform="translate(325.582031 0)"/>
       <use xlink:href="#DejaVuSans-65" transform="translate(364.445312 0)"/>
       <use xlink:href="#DejaVuSans-6e" transform="translate(425.96875 0)"/>
       <use xlink:href="#DejaVuSans-7a" transform="translate(489.347656 0)"/>
       <use xlink:href="#DejaVuSans-61" transform="translate(541.837891 0)"/>
      </g>
     </g>
    </g>
    <g id="xtick_5">
     <g id="line2d_5">
      <path d="M 231.104862 268.312 
L 299.632471 479.218293 
" clip-path="url(#p74580a2c15)" style="fill: none; stroke: #b0b0b0; stroke-width: 0.8; stroke-linecap: square"/>
     </g>
     <g id="text_5">
      <!-- Efficienza -->
      <g transform="translate(277.404021 495.568397) scale(0.11 -0.11)">
       <defs>
        <path id="DejaVuSans-45" d="M 628 4666 
L 3578 4666 
L 3578 4134 
L 1259 4134 
L 1259 2753 
L 3481 2753 
L 3481 2222 
L 1259 2222 
L 1259 531 
L 3634 531 
L 3634 0 
L 628 0 
L 628 4666 
z
" transform="scale(0.015625)"/>
       </defs>
       <use xlink:href="#DejaVuSans-45"/>
       <use xlink:href="#DejaVuSans-66" transform="translate(63.183594 0)"/>
       <use xlink:href="#DejaVuSans-66" transform="translate(98.388672 0)"/>
       <use xlink:href="#DejaVuSans-69" transform="translate(133.59375 0)"/>
       <use xlink:href="#DejaVuSans-63" transform="translate(161.376953 0)"/>
       <use xlink:href="#DejaVuSans-69" transform="translate(216.357422 0)"/>
       <use xlink:href="#DejaVuSans-65" transform="translate(244.140625 0)"/>
       <use xlink:href="#DejaVuSans-6e" transform="translate(305.664062 0)"/>
       <use xlink:href="#DejaVuSans-7a" transform="translate(369.042969 0)"/>
       <use xlink:href="#DejaVuSans-61" transform="translate(421.533203 0)"/>
      </g>
     </g>
    </g>
   </g>
   <g id="matplotlib.axis_2">
    <g id="ytick_1">
     <g id="line2d_6">
      <path d="M 275.456862 268.312 
C 275.456862 262.487749 274.309612 256.720131 272.080767 251.339224 
C 269.851923 245.958318 266.58483 241.068768 262.466462 236.9504 
C 258.348095 232.832032 253.458544 229.564939 248.077638 227.336095 
C 242.696731 225.107251 236.929113 223.96 231.104862 223.96 
C 225.280611 223.96 219.512993 225.107251 214.132087 227.336095 
C 208.75118 229.564939 203.86163 232.832032 199.743262 236.9504 
C 195.624895 241.068768 192.357802 245.958318 190.128957 251.339224 
C 187.900113 256.720131 186.752862 262.487749 186.752862 268.312 
C 186.752862 274.136251 187.900113 279.903869 190.128957 285.284776 
C 192.357802 290.665682 195.624895 295.555232 199.743262 299.6736 
C 203.86163 303.791968 208.75118 307.059061 214.132087 309.287905 
C 219.512993 311.516749 225.280611 312.664 231.104862 312.664 
C 236.929113 312.664 242.696731 311.516749 248.077638 309.287905 
C 253.458544 307.059061 258.348095 303.791968 262.466462 299.6736 
C 266.58483 295.555232 269.851923 290.665682 272.080767 285.284776 
C 274.309612 279.903869 275.456862 274.136251 275.456862 268.312 
" clip-path="url(#p74580a2c15)" style="fill: none; stroke: #b0b0b0; stroke-width: 0.8; stroke-linecap: square"/>
     </g>
     <g id="text_6">
      <!-- 1 -->
      <g transform="translate(272.080767 249.259537) scale(0.1 -0.1)">
       <defs>
        <path id="DejaVuSans-31" d="M 794 531 
L 1825 531 
L 1825 4091 
L 703 3866 
L 703 4441 
L 1819 4666 
L 2450 4666 
L 2450 531 
L 3481 531 
L 3481 0 
L 794 0 
L 794 531 
z
" transform="scale(0.015625)"/>
       </defs>
       <use xlink:href="#DejaVuSans-31"/>
      </g>
     </g>
    </g>
    <g id="ytick_2">
     <g id="line2d_7">
      <path d="M 319.808862 268.312 
C 319.808862 256.663497 317.514361 245.128262 313.056672 234.366449 
C 308.598983 223.604636 302.064797 213.825535 293.828062 205.5888 
C 285.591327 197.352065 275.812226 190.817879 265.050413 186.36019 
C 254.2886 181.902501 242.753365 179.608 231.104862 179.608 
C 219.45636 179.608 207.921124 181.902501 197.159311 186.36019 
C 186.397498 190.817879 176.618397 197.352065 168.381662 205.5888 
C 160.144927 213.825535 153.610741 223.604636 149.153052 234.366449 
C 144.695363 245.128262 142.400862 256.663497 142.400862 268.312 
C 142.400862 279.960503 144.695363 291.495738 149.153052 302.257551 
C 153.610741 313.019364 160.144927 322.798465 168.381662 331.0352 
C 176.618397 339.271935 186.397498 345.806121 197.159311 350.26381 
C 207.921124 354.721499 219.45636 357.016 231.104862 357.016 
C 242.753365 357.016 254.2886 354.721499 265.050413 350.26381 
C 275.812226 345.806121 285.591327 339.271935 293.828062 331.0352 
C 302.064797 322.798465 308.598983 313.019364 313.056672 302.257551 
C 317.514361 291.495738 319.808862 279.960503 319.808862 268.312 
" clip-path="url(#p74580a2c15)" style="fill: none; stroke: #b0b0b0; stroke-width: 0.8; stroke-linecap: square"/>
     </g>
     <g id="text_7">
      <!-- 2 -->
      <g transform="translate(313.056672 232.286761) scale(0.1 -0.1)">
       <defs>
        <path id="DejaVuSans-32" d="M 1228 531 
L 3431 531 
L 3431 0 
L 469 0 
L 469 531 
Q 828 903 1448 1529 
Q 2069 2156 2228 2338 
Q 2531 2678 2651 2914 
Q 2772 3150 2772 3378 
Q 2772 3750 2511 3984 
Q 2250 4219 1831 4219 
Q 1534 4219 1204 4116 
Q 875 4013 500 3803 
L 500 4441 
Q 881 4594 1212 4672 
Q 1544 4750 1819 4750 
Q 2544 4750 2975 4387 
Q 3406 4025 3406 3419 
Q 3406 3131 3298 2873 
Q 3191 2616 2906 2266 
Q 2828 2175 2409 1742 
Q 1991 1309 1228 531 
z
" transform="scale(0.015625)"/>
       </defs>
       <use xlink:href="#DejaVuSans-32"/>
      </g>
     </g>
    </g>
    <g id="ytick_3">
     <g id="line2d_8">
      <path d="M 364.160862 268.312 
C 364.160862 250.839246 360.719111 233.536393 354.032577 217.393673 
C 347.346044 201.250954 337.544765 186.582303 325.189662 174.2272 
C 312.834559 161.872097 298.165909 152.070818 282.023189 145.384285 
C 265.880469 138.697752 248.577616 135.256 231.104862 135.256 
C 213.632108 135.256 196.329255 138.697752 180.186535 145.384285 
C 164.043816 152.070818 149.375165 161.872097 137.020062 174.2272 
C 124.66496 186.582303 114.863681 201.250954 108.177147 217.393673 
C 101.490614 233.536393 98.048862 250.839246 98.048862 268.312 
C 98.048862 285.784754 101.490614 303.087607 108.177147 319.230327 
C 114.863681 335.373046 124.66496 350.041697 137.020062 362.3968 
C 149.375165 374.751903 164.043816 384.553182 180.186535 391.239715 
C 196.329255 397.926248 213.632108 401.368 231.104862 401.368 
C 248.577616 401.368 265.880469 397.926248 282.023189 391.239715 
C 298.165909 384.553182 312.834559 374.751903 325.189662 362.3968 
C 337.544765 350.041697 347.346044 335.373046 354.032577 319.230327 
C 360.719111 303.087607 364.160862 285.784754 364.160862 268.312 
" clip-path="url(#p74580a2c15)" style="fill: none; stroke: #b0b0b0; stroke-width: 0.8; stroke-linecap: square"/>
     </g>
     <g id="text_8">
      <!-- 3 -->
      <g transform="translate(354.032577 215.313986) scale(0.1 -0.1)">
       <defs>
        <path id="DejaVuSans-33" d="M 2597 2516 
Q 3050 2419 3304 2112 
Q 3559 1806 3559 1356 
Q 3559 666 3084 287 
Q 2609 -91 1734 -91 
Q 1441 -91 1130 -33 
Q 819 25 488 141 
L 488 750 
Q 750 597 1062 519 
Q 1375 441 1716 441 
Q 2309 441 2620 675 
Q 2931 909 2931 1356 
Q 2931 1769 2642 2001 
Q 2353 2234 1838 2234 
L 1294 2234 
L 1294 2753 
L 1863 2753 
Q 2328 2753 2575 2939 
Q 2822 3125 2822 3475 
Q 2822 3834 2567 4026 
Q 2313 4219 1838 4219 
Q 1578 4219 1281 4162 
Q 984 4106 628 3988 
L 628 4550 
Q 988 4650 1302 4700 
Q 1616 4750 1894 4750 
Q 2613 4750 3031 4423 
Q 3450 4097 3450 3541 
Q 3450 3153 3228 2886 
Q 3006 2619 2597 2516 
z
" transform="scale(0.015625)"/>
       </defs>
       <use xlink:href="#DejaVuSans-33"/>
      </g>
     </g>
    </g>
    <g id="ytick_4">
     <g id="line2d_9">
      <path d="M 408.512862 268.312 
C 408.512862 245.014995 403.92386 221.944524 395.008482 200.420898 
C 386.093104 178.897271 373.024732 159.33907 356.551262 142.8656 
C 340.077792 126.39213 320.519591 113.323758 298.995965 104.40838 
C 277.472338 95.493002 254.401867 90.904 231.104862 90.904 
C 207.807857 90.904 184.737386 95.493002 163.21376 104.40838 
C 141.690134 113.323758 122.131933 126.39213 105.658462 142.8656 
C 89.184992 159.33907 76.11662 178.897271 67.201242 200.420898 
C 58.285864 221.944524 53.696862 245.014995 53.696862 268.312 
C 53.696862 291.609005 58.285864 314.679476 67.201242 336.203102 
C 76.11662 357.726729 89.184992 377.28493 105.658462 393.7584 
C 122.131933 410.23187 141.690134 423.300242 163.21376 432.21562 
C 184.737386 441.130998 207.807857 445.72 231.104862 445.72 
C 254.401867 445.72 277.472338 441.130998 298.995965 432.21562 
C 320.519591 423.300242 340.077792 410.23187 356.551262 393.7584 
C 373.024732 377.28493 386.093104 357.726729 395.008482 336.203102 
C 403.92386 314.679476 408.512862 291.609005 408.512862 268.312 
" clip-path="url(#p74580a2c15)" style="fill: none; stroke: #b0b0b0; stroke-width: 0.8; stroke-linecap: square"/>
     </g>
     <g id="text_9">
      <!-- 4 -->
      <g transform="translate(395.008482 198.34121) scale(0.1 -0.1)">
       <defs>
        <path id="DejaVuSans-34" d="M 2419 4116 
L 825 1625 
L 2419 1625 
L 2419 4116 
z
M 2253 4666 
L 3047 4666 
L 3047 1625 
L 3713 1625 
L 3713 1100 
L 3047 1100 
L 3047 0 
L 2419 0 
L 2419 1100 
L 313 1100 
L 313 1709 
L 2253 4666 
z
" transform="scale(0.015625)"/>
       </defs>
       <use xlink:href="#DejaVuSans-34"/>
      </g>
     </g>
    </g>
    <g id="ytick_5">
     <g id="line2d_10">
      <path d="M 452.864862 268.312 
C 452.864862 239.190744 447.12861 210.352655 435.984387 183.448122 
C 424.840165 156.543589 408.5047 132.095838 387.912862 111.504 
C 367.321024 90.912162 342.873273 74.576697 315.96874 63.432475 
C 289.064207 52.288253 260.226119 46.552 231.104862 46.552 
C 201.983606 46.552 173.145517 52.288253 146.240984 63.432475 
C 119.336452 74.576697 94.8887 90.912162 74.296862 111.504 
C 53.705025 132.095838 37.369559 156.543589 26.225337 183.448122 
C 15.081115 210.352655 9.344862 239.190744 9.344862 268.312 
C 9.344862 297.433256 15.081115 326.271345 26.225337 353.175878 
C 37.369559 380.080411 53.705025 404.528162 74.296862 425.12 
C 94.8887 445.711838 119.336452 462.047303 146.240984 473.191525 
C 173.145517 484.335747 201.983606 490.072 231.104862 490.072 
C 260.226119 490.072 289.064207 484.335747 315.96874 473.191525 
C 342.873273 462.047303 367.321024 445.711838 387.912862 425.12 
C 408.5047 404.528162 424.840165 380.080411 435.984387 353.175878 
C 447.12861 326.271345 452.864862 297.433256 452.864862 268.312 
" clip-path="url(#p74580a2c15)" style="fill: none; stroke: #b0b0b0; stroke-width: 0.8; stroke-linecap: square"/>
     </g>
     <g id="text_10">
      <!-- 5 -->
      <g transform="translate(435.984387 181.368435) scale(0.1 -0.1)">
       <defs>
        <path id="DejaVuSans-35" d="M 691 4666 
L 3169 4666 
L 3169 4134 
L 1269 4134 
L 1269 2991 
Q 1406 3038 1543 3061 
Q 1681 3084 1819 3084 
Q 2600 3084 3056 2656 
Q 3513 2228 3513 1497 
Q 3513 744 3044 326 
Q 2575 -91 1722 -91 
Q 1428 -91 1123 -41 
Q 819 9 494 109 
L 494 744 
Q 775 591 1075 516 
Q 1375 441 1709 441 
Q 2250 441 2565 725 
Q 2881 1009 2881 1497 
Q 2881 1984 2565 2268 
Q 2250 2553 1709 2553 
Q 1456 2553 1204 2497 
Q 953 2441 691 2322 
L 691 4666 
z
" transform="scale(0.015625)"/>
       </defs>
       <use xlink:href="#DejaVuSans-35"/>
      </g>
     </g>
    </g>
   </g>
   <g id="line2d_11">
    <path d="M 443.994462 268.312 
L 294.150262 74.27821 
L 69.638014 150.999468 
L 73.226167 383.017587 
L 288.668054 445.473286 
L 443.994462 268.312 
" clip-path="url(#p74580a2c15)" style="fill: none; stroke: #0000ff; stroke-width: 2; stroke-linecap: square"/>
   </g>
   <g id="line2d_12"/>
   <g id="line2d_13"/>
   <g id="line2d_14"/>
   <g id="line2d_15"/>
   <g id="line2d_16"/>
   <g id="patch_4">
    <path d="M 452.864862 268.312 
C 452.864862 239.190744 447.12861 210.352655 435.984387 183.448122 
C 424.840165 156.543589 408.5047 132.095838 387.912862 111.504 
C 367.321024 90.912162 342.873273 74.576697 315.96874 63.432475 
C 289.064207 52.288253 260.226119 46.552 231.104862 46.552 
C 201.983606 46.552 173.145517 52.288253 146.240984 63.432475 
C 119.336452 74.576697 94.8887 90.912162 74.296862 111.504 
C 53.705025 132.095838 37.369559 156.543589 26.225337 183.448122 
C 15.081115 210.352655 9.344862 239.190744 9.344862 268.312 
C 9.344862 297.433256 15.081115 326.271345 26.225337 353.175878 
C 37.369559 380.080411 53.705025 404.528162 74.296862 425.12 
C 94.8887 445.711838 119.336452 462.047303 146.240984 473.191525 
C 173.145517 484.335747 201.983606 490.072 231.104862 490.072 
C 260.226119 490.072 289.064207 484.335747 315.96874 473.191525 
C 342.873273 462.047303 367.321024 445.711838 387.912862 425.12 
C 408.5047 404.528162 424.840165 380.080411 435.984387 353.175878 
C 447.12861 326.271345 452.864862 297.433256 452.864862 268.312 
" style="fill: none; stroke: #000000; stroke-width: 0.8; stroke-linejoin: miter; stroke-linecap: square"/>
   </g>
   <g id="legend_1">
    <g id="patch_5">
     <path d="M 397.593862 83.990625 
L 534.568862 83.990625 
Q 536.568862 83.990625 536.568862 81.990625 
L 536.568862 9.2 
Q 536.568862 7.2 534.568862 7.2 
L 397.593862 7.2 
Q 395.593862 7.2 395.593862 9.2 
L 395.593862 81.990625 
Q 395.593862 83.990625 397.593862 83.990625 
z
" style="fill: #ffffff; opacity: 0.8; stroke: #cccccc; stroke-linejoin: miter"/>
    </g>
    <g id="line2d_17">
     <path d="M 399.593862 15.298438 
L 409.593862 15.298438 
L 419.593862 15.298438 
" style="fill: none; stroke: #ffffff; stroke-width: 1.5; stroke-linecap: square"/>
    </g>
    <g id="text_11">
     <!-- Confidenzialità = 4.8 -->
     <g transform="translate(427.593862 18.798438) scale(0.1 -0.1)">
      <defs>
       <path id="DejaVuSans-20" transform="scale(0.015625)"/>
       <path id="DejaVuSans-3d" d="M 678 2906 
L 4684 2906 
L 4684 2381 
L 678 2381 
L 678 2906 
z
M 678 1631 
L 4684 1631 
L 4684 1100 
L 678 1100 
L 678 1631 
z
" transform="scale(0.015625)"/>
       <path id="DejaVuSans-2e" d="M 684 794 
L 1344 794 
L 1344 0 
L 684 0 
L 684 794 
z
" transform="scale(0.015625)"/>
       <path id="DejaVuSans-38" d="M 2034 2216 
Q 1584 2216 1326 1975 
Q 1069 1734 1069 1313 
Q 1069 891 1326 650 
Q 1584 409 2034 409 
Q 2484 409 2743 651 
Q 3003 894 3003 1313 
Q 3003 1734 2745 1975 
Q 2488 2216 2034 2216 
z
M 1403 2484 
Q 997 2584 770 2862 
Q 544 3141 544 3541 
Q 544 4100 942 4425 
Q 1341 4750 2034 4750 
Q 2731 4750 3128 4425 
Q 3525 4100 3525 3541 
Q 3525 3141 3298 2862 
Q 3072 2584 2669 2484 
Q 3125 2378 3379 2068 
Q 3634 1759 3634 1313 
Q 3634 634 3220 271 
Q 2806 -91 2034 -91 
Q 1263 -91 848 271 
Q 434 634 434 1313 
Q 434 1759 690 2068 
Q 947 2378 1403 2484 
z
M 1172 3481 
Q 1172 3119 1398 2916 
Q 1625 2713 2034 2713 
Q 2441 2713 2670 2916 
Q 2900 3119 2900 3481 
Q 2900 3844 2670 4047 
Q 2441 4250 2034 4250 
Q 1625 4250 1398 4047 
Q 1172 3844 1172 3481 
z
" transform="scale(0.015625)"/>
      </defs>
      <use xlink:href="#DejaVuSans-43"/>
      <use xlink:href="#DejaVuSans-6f" transform="translate(69.824219 0)"/>
      <use xlink:href="#DejaVuSans-6e" transform="translate(131.005859 0)"/>
      <use xlink:href="#DejaVuSans-66" transform="translate(194.384766 0)"/>
      <use xlink:href="#DejaVuSans-69" transform="translate(229.589844 0)"/>
      <use xlink:href="#DejaVuSans-64" transform="translate(257.373047 0)"/>
      <use xlink:href="#DejaVuSans-65" transform="translate(320.849609 0)"/>
      <use xlink:href="#DejaVuSans-6e" transform="translate(382.373047 0)"/>
      <use xlink:href="#DejaVuSans-7a" transform="translate(445.751953 0)"/>
      <use xlink:href="#DejaVuSans-69" transform="translate(498.242188 0)"/>
      <use xlink:href="#DejaVuSans-61" transform="translate(526.025391 0)"/>
      <use xlink:href="#DejaVuSans-6c" transform="translate(587.304688 0)"/>
      <use xlink:href="#DejaVuSans-69" transform="translate(615.087891 0)"/>
      <use xlink:href="#DejaVuSans-74" transform="translate(642.871094 0)"/>
      <use xlink:href="#DejaVuSans-e0" transform="translate(682.080078 0)"/>
      <use xlink:href="#DejaVuSans-20" transform="translate(743.359375 0)"/>
      <use xlink:href="#DejaVuSans-3d" transform="translate(775.146484 0)"/>
      <use xlink:href="#DejaVuSans-20" transform="translate(858.935547 0)"/>
      <use xlink:href="#DejaVuSans-34" transform="translate(890.722656 0)"/>
      <use xlink:href="#DejaVuSans-2e" transform="translate(954.345703 0)"/>
      <use xlink:href="#DejaVuSans-38" transform="translate(986.132812 0)"/>
     </g>
    </g>
    <g id="line2d_18">
     <path d="M 399.593862 29.976563 
L 409.593862 29.976563 
L 419.593862 29.976563 
" style="fill: none; stroke: #ffffff; stroke-width: 1.5; stroke-linecap: square"/>
    </g>
    <g id="text_12">
     <!-- Privacy = 4.6 -->
     <g transform="translate(427.593862 33.476563) scale(0.1 -0.1)">
      <defs>
       <path id="DejaVuSans-36" d="M 2113 2584 
Q 1688 2584 1439 2293 
Q 1191 2003 1191 1497 
Q 1191 994 1439 701 
Q 1688 409 2113 409 
Q 2538 409 2786 701 
Q 3034 994 3034 1497 
Q 3034 2003 2786 2293 
Q 2538 2584 2113 2584 
z
M 3366 4563 
L 3366 3988 
Q 3128 4100 2886 4159 
Q 2644 4219 2406 4219 
Q 1781 4219 1451 3797 
Q 1122 3375 1075 2522 
Q 1259 2794 1537 2939 
Q 1816 3084 2150 3084 
Q 2853 3084 3261 2657 
Q 3669 2231 3669 1497 
Q 3669 778 3244 343 
Q 2819 -91 2113 -91 
Q 1303 -91 875 529 
Q 447 1150 447 2328 
Q 447 3434 972 4092 
Q 1497 4750 2381 4750 
Q 2619 4750 2861 4703 
Q 3103 4656 3366 4563 
z
" transform="scale(0.015625)"/>
      </defs>
      <use xlink:href="#DejaVuSans-50"/>
      <use xlink:href="#DejaVuSans-72" transform="translate(58.552734 0)"/>
      <use xlink:href="#DejaVuSans-69" transform="translate(99.666016 0)"/>
      <use xlink:href="#DejaVuSans-76" transform="translate(127.449219 0)"/>
      <use xlink:href="#DejaVuSans-61" transform="translate(186.628906 0)"/>
      <use xlink:href="#DejaVuSans-63" transform="translate(247.908203 0)"/>
      <use xlink:href="#DejaVuSans-79" transform="translate(302.888672 0)"/>
      <use xlink:href="#DejaVuSans-20" transform="translate(362.068359 0)"/>
      <use xlink:href="#DejaVuSans-3d" transform="translate(393.855469 0)"/>
      <use xlink:href="#DejaVuSans-20" transform="translate(477.644531 0)"/>
      <use xlink:href="#DejaVuSans-34" transform="translate(509.431641 0)"/>
      <use xlink:href="#DejaVuSans-2e" transform="translate(573.054688 0)"/>
      <use xlink:href="#DejaVuSans-36" transform="translate(604.841797 0)"/>
     </g>
    </g>
    <g id="line2d_19">
     <path d="M 399.593862 45.054688 
L 409.593862 45.054688 
L 419.593862 45.054688 
" style="fill: none; stroke: #ffffff; stroke-width: 1.5; stroke-linecap: square"/>
    </g>
    <g id="text_13">
     <!-- Integrità = 4.5 -->
     <g transform="translate(427.593862 48.554688) scale(0.1 -0.1)">
      <use xlink:href="#DejaVuSans-49"/>
      <use xlink:href="#DejaVuSans-6e" transform="translate(29.492188 0)"/>
      <use xlink:href="#DejaVuSans-74" transform="translate(92.871094 0)"/>
      <use xlink:href="#DejaVuSans-65" transform="translate(132.080078 0)"/>
      <use xlink:href="#DejaVuSans-67" transform="translate(193.603516 0)"/>
      <use xlink:href="#DejaVuSans-72" transform="translate(257.080078 0)"/>
      <use xlink:href="#DejaVuSans-69" transform="translate(298.193359 0)"/>
      <use xlink:href="#DejaVuSans-74" transform="translate(325.976562 0)"/>
      <use xlink:href="#DejaVuSans-e0" transform="translate(365.185547 0)"/>
      <use xlink:href="#DejaVuSans-20" transform="translate(426.464844 0)"/>
      <use xlink:href="#DejaVuSans-3d" transform="translate(458.251953 0)"/>
      <use xlink:href="#DejaVuSans-20" transform="translate(542.041016 0)"/>
      <use xlink:href="#DejaVuSans-34" transform="translate(573.828125 0)"/>
      <use xlink:href="#DejaVuSans-2e" transform="translate(637.451172 0)"/>
      <use xlink:href="#DejaVuSans-35" transform="translate(669.238281 0)"/>
     </g>
    </g>
    <g id="line2d_20">
     <path d="M 399.593862 59.732813 
L 409.593862 59.732813 
L 419.593862 59.732813 
" style="fill: none; stroke: #ffffff; stroke-width: 1.5; stroke-linecap: square"/>
    </g>
    <g id="text_14">
     <!-- Trasparenza = 4.4 -->
     <g transform="translate(427.593862 63.232813) scale(0.1 -0.1)">
      <use xlink:href="#DejaVuSans-54"/>
      <use xlink:href="#DejaVuSans-72" transform="translate(46.333984 0)"/>
      <use xlink:href="#DejaVuSans-61" transform="translate(87.447266 0)"/>
      <use xlink:href="#DejaVuSans-73" transform="translate(148.726562 0)"/>
      <use xlink:href="#DejaVuSans-70" transform="translate(200.826172 0)"/>
      <use xlink:href="#DejaVuSans-61" transform="translate(264.302734 0)"/>
      <use xlink:href="#DejaVuSans-72" transform="translate(325.582031 0)"/>
      <use xlink:href="#DejaVuSans-65" transform="translate(364.445312 0)"/>
      <use xlink:href="#DejaVuSans-6e" transform="translate(425.96875 0)"/>
      <use xlink:href="#DejaVuSans-7a" transform="translate(489.347656 0)"/>
      <use xlink:href="#DejaVuSans-61" transform="translate(541.837891 0)"/>
      <use xlink:href="#DejaVuSans-20" transform="translate(603.117188 0)"/>
      <use xlink:href="#DejaVuSans-3d" transform="translate(634.904297 0)"/>
      <use xlink:href="#DejaVuSans-20" transform="translate(718.693359 0)"/>
      <use xlink:href="#DejaVuSans-34" transform="translate(750.480469 0)"/>
      <use xlink:href="#DejaVuSans-2e" transform="translate(814.103516 0)"/>
      <use xlink:href="#DejaVuSans-34" transform="translate(845.890625 0)"/>
     </g>
    </g>
    <g id="line2d_21">
     <path d="M 399.593862 74.410938 
L 409.593862 74.410938 
L 419.593862 74.410938 
" style="fill: none; stroke: #ffffff; stroke-width: 1.5; stroke-linecap: square"/>
    </g>
    <g id="text_15">
     <!-- Efficienza = 4.2 -->
     <g transform="translate(427.593862 77.910938) scale(0.1 -0.1)">
      <use xlink:href="#DejaVuSans-45"/>
      <use xlink:href="#DejaVuSans-66" transform="translate(63.183594 0)"/>
      <use xlink:href="#DejaVuSans-66" transform="translate(98.388672 0)"/>
      <use xlink:href="#DejaVuSans-69" transform="translate(133.59375 0)"/>
      <use xlink:href="#DejaVuSans-63" transform="translate(161.376953 0)"/>
      <use xlink:href="#DejaVuSans-69" transform="translate(216.357422 0)"/>
      <use xlink:href="#DejaVuSans-65" transform="translate(244.140625 0)"/>
      <use xlink:href="#DejaVuSans-6e" transform="translate(305.664062 0)"/>
      <use xlink:href="#DejaVuSans-7a" transform="translate(369.042969 0)"/>
      <use xlink:href="#DejaVuSans-61" transform="translate(421.533203 0)"/>
      <use xlink:href="#DejaVuSans-20" transform="translate(482.8125 0)"/>
      <use xlink:href="#DejaVuSans-3d" transform="translate(514.599609 0)"/>
      <use xlink:href="#DejaVuSans-20" transform="translate(598.388672 0)"/>
      <use xlink:href="#DejaVuSans-34" transform="translate(630.175781 0)"/>
      <use xlink:href="#DejaVuSans-2e" transform="translate(693.798828 0)"/>
      <use xlink:href="#DejaVuSans-32" transform="translate(725.585938 0)"/>
     </g>
    </g>
   </g>
  </g>
 </g>
 <defs>
  <clipPath id="p74580a2c15">
   <path d="M 452.864862 268.312 
C 452.864862 239.190744 447.12861 210.352655 435.984387 183.448122 
C 424.840165 156.543589 408.5047 132.095838 387.912862 111.504 
C 367.321024 90.912162 342.873273 74.576697 315.96874 63.432475 
C 289.064207 52.288253 260.226119 46.552 231.104862 46.552 
C 201.983606 46.552 173.145517 52.288253 146.240984 63.432475 
C 119.336452 74.576697 94.8887 90.912162 74.296862 111.504 
C 53.705025 132.095838 37.369559 156.543589 26.225337 183.448122 
C 15.081115 210.352655 9.344862 239.190744 9.344862 268.312 
C 9.344862 297.433256 15.081115 326.271345 26.225337 353.175878 
C 37.369559 380.080411 53.705025 404.528162 74.296862 425.12 
C 94.8887 445.711838 119.336452 462.047303 146.240984 473.191525 
C 173.145517 484.335747 201.983606 490.072 231.104862 490.072 
C 260.226119 490.072 289.064207 484.335747 315.96874 473.191525 
C 342.873273 462.047303 367.321024 445.711838 387.912862 425.12 
C 408.5047 404.528162 424.840165 380.080411 435.984387 353.175878 
C 447.12861 326.271345 452.864862 297.433256 452.864862 268.312 
M 231.104862 268.312 
C 231.104862 268.312 231.104862 268.312 231.104862 268.312 
C 231.104862 268.312 231.104862 268.312 231.104862 268.312 
C 231.104862 268.312 231.104862 268.312 231.104862 268.312 
C 231.104862 268.312 231.104862 268.312 231.104862 268.312 
C 231.104862 268.312 231.104862 268.312 231.104862 268.312 
C 231.104862 268.312 231.104862 268.312 231.104862 268.312 
C 231.104862 268.312 231.104862 268.312 231.104862 268.312 
C 231.104862 268.312 231.104862 268.312 231.104862 268.312 
C 231.104862 268.312 231.104862 268.312 231.104862 268.312 
C 231.104862 268.312 231.104862 268.312 231.104862 268.312 
C 231.104862 268.312 231.104862 268.312 231.104862 268.312 
C 231.104862 268.312 231.104862 268.312 231.104862 268.312 
C 231.104862 268.312 231.104862 268.312 231.104862 268.312 
C 231.104862 268.312 231.104862 268.312 231.104862 268.312 
C 231.104862 268.312 231.104862 268.312 231.104862 268.312 
C 231.104862 268.312 231.104862 268.312 231.104862 268.312 
z
"/>
  </clipPath>
 </defs>
</svg>
